<?xml version="1.0" encoding="UTF-8" standalone="no"?>
<!-- Uploaded to: SVG Repo, www.svgrepo.com, Generator: SVG Repo Mixer Tools -->

<svg
   fill="#ffffff"
   width="800"
   height="800"
   viewBox="0 0 1000 1000"
   version="1.1"
   enable-background="new 0 0 1000 1000"
   xml:space="preserve"
   id="svg4"
   xmlns="http://www.w3.org/2000/svg"
   xmlns:svg="http://www.w3.org/2000/svg"><defs
   id="defs4" />&#10;&#10;  <g
   id="g4"
   transform="matrix(2.1516324,0,0,2.1516324,-555.79837,-1197.4091)">&#10;&#10;    <g
   transform="matrix(0.1,0,0,-0.1,0,511)"
   id="g3">&#10;&#10;      &#10;&#10;      &#10;&#10;      <path
   d="m 6617.1341,-3101.4243 c 48.904,121.0824 200.4569,321.5241 264.3054,607.9505 63.8485,286.4264 15.788,754.291 13.569,854.922 -2.3299,217.2389 -27.4045,347.4934 -64.0178,347.4934 -18.3066,0 -86.8733,-75.4456 -153.1101,-169.1978 -66.3477,-91.4222 -164.6488,-212.5789 -219.4578,-269.8288 -105.18,-107.5099 -292.6844,-212.5789 -379.5577,-212.5789 -59.4689,0 -141.7933,36.6133 -141.7933,66.2367 0,9.2088 45.7111,98.3012 102.85,196.6023 205.8111,363.47 331.5167,745.35766 331.5167,1010.52661 0,137.1334 -22.8556,112.05884 -112.0588,-118.9377 -159.989,-418.38991 -363.4701,-663.03331 -697.3167,-841.32891 -221.7878,-116.6077 -265.169,-125.7056 -320.0889,-70.8966 -139.4633,137.1334 105.18,557.8533 427.4879,740.80876 210.3599,118.9377 205.811,157.76998 -11.4278,116.60777 -212.579,-41.16221 -496.0546,-164.64883 -715.6233,-310.88003 -194.3833,-128.0356 -269.7179,-205.811 -541.8767,-548.7555 -244.6433,-308.6611 -717.8423,-621.8711 -1159.0878,-765.8834 -128.0356,-43.4921 -166.8678,-70.8966 -308.6611,-221.7877 -89.2033,-95.9712 -164.6488,-185.1745 -166.8678,-198.9322 -4.549,-13.7577 105.1799,-100.5201 240.0944,-194.3833 171.4167,-118.8267 262.9499,-196.6022 306.3311,-265.1689 52.59,-89.2033 313.21,-320.0889 333.7357,-299.4523 4.5489,4.5489 -9.0979,64.0178 -27.4045,130.2545 -48.0411,155.4401 -48.0411,262.95 0,281.2566 73.1156,27.4045 486.9567,11.4278 820.8033,-31.9534 384.1066,-50.371 507.5932,-54.9199 592.1366,-22.8555 31.9535,11.4277 61.6879,13.6467 68.5667,4.5489 18.3067,-32.0644 -77.7754,-262.95 -169.1977,-404.6323 -114.2778,-173.7467 -329.1867,-390.9855 -473.3099,-475.5289 -171.4168,-98.3011 -400.0834,-160.0999 -610.4434,-162.3189 -308.6611,-2.3299 -420.7199,89.2033 -459.5522,370.3489 -9.0978,64.0178 -22.8555,114.2779 -34.2833,107.5099 -38.8323,-25.1855 -102.8501,-477.8588 -93.7522,-681.3399 4.5489,-160.0999 224.0067,-299.5633 534.9977,-338.3955 102.8501,-11.4278 235.5455,-31.9534 294.9034,-41.1622 61.6879,-11.4278 109.7289,-11.4278 109.7289,-2.33 0,9.2088 -36.6133,45.7112 -82.3244,79.9945 -45.7111,34.2833 -73.1156,70.8966 -61.6878,82.3244 9.0978,9.0979 169.1977,50.2601 354.3722,89.2033 402.4133,82.3244 516.6911,118.8267 866.5144,272.0478 365.8,162.3189 656.1545,233.2155 946.5089,233.2155 141.7933,0 272.0478,-13.7577 342.9445,-34.2833 64.0177,-20.5256 141.7932,-36.5023 178.2956,-36.5023 116.6077,0 59.3922,304.89 -82.7369,498.8054 -142.1291,193.9154 -92.9285,507.5741 -44.0245,628.6565 z m -1532.819,774.7647 c -73.1156,-75.4456 -77.7755,-89.2033 -45.7111,-109.7289 34.2833,-20.5257 34.2833,-27.4045 0,-79.9945 -82.3245,-123.4867 -324.6378,-205.7001 -507.5933,-171.5277 l -82.3244,15.9767 50.26,89.2033 c 68.5667,121.1567 194.3833,203.4811 418.39,278.9266 249.1923,82.3244 267.4989,79.9945 166.9788,-22.8555 z"
   id="path3"
   style="stroke-width:1.10949" />&#10;&#10;    </g>&#10;&#10;  </g>&#10;</svg>
