<?xml version="1.0" encoding="UTF-8" standalone="no"?>
<!-- Uploaded to: SVG Repo, www.svgrepo.com, Generator: SVG Repo Mixer Tools -->

<svg
   fill="#ffffff"
   width="800"
   height="800"
   viewBox="0 0 1000 1000"
   version="1.1"
   enable-background="new 0 0 1000 1000"
   xml:space="preserve"
   id="svg4"
   xmlns="http://www.w3.org/2000/svg"
   xmlns:svg="http://www.w3.org/2000/svg"><defs
   id="defs1" />&#10;   <path
   d="m 496.4681,985.94296 c 79.36774,19.48094 151.23044,-51.53826 224.29076,-88.157 C 798.13525,859.00398 909.17851,845.91948 938.38961,764.44645 968.93643,679.24801 866.39539,599.58887 860.04449,509.30295 854.35084,428.36018 927.25697,351.78162 903.8959,274.0744 879.91447,194.30365 815.08786,119.94696 735.55213,95.197267 656.3212,70.542444 579.4446,147.8421 496.4681,147.29231 412.64852,146.73692 325.37836,45.65169 255.54784,92.016808 183.7836,139.66584 241.37414,262.9192 204.83368,340.92772 172.89381,409.11464 68.893594,434.52324 60.084233,509.30295 c -8.662405,73.53223 52.146067,138.3771 102.183777,192.95052 44.22499,48.23376 115.69919,56.74488 165.58824,99.09375 64.63463,54.86586 86.27441,164.38586 168.61185,184.59574"
   fill="#7ed0ec"
   strokewidth="0"
   id="path1"
   style="fill:#723523;fill-opacity:1;stroke-width:32.4674" />&#10;   <path
   d="m 806.61817,557.37351 c 8.83405,-21.8724 36.21067,-58.08032 47.7443,-109.82056 11.53363,-51.74025 2.85195,-136.25561 2.45111,-154.43366 -0.42087,-39.24218 -4.95036,-62.77143 -11.56421,-62.77143 -3.30692,0 -15.69285,13.62854 -27.65791,30.564 -11.98509,16.51456 -29.74226,38.40039 -39.643,48.74204 -18.99978,19.42066 -52.8707,38.40039 -68.56354,38.40039 -10.7425,0 -25.61364,-6.61385 -25.61364,-11.96504 0,-1.66348 8.25729,-17.75719 18.57889,-35.51436 37.17785,-65.65746 59.88539,-134.64189 59.88539,-182.54218 0,-24.771861 -4.12865,-20.242377 -20.24237,21.48499 -28.90052,75.57822 -65.65747,119.77076 -125.96374,151.97819 -40.06389,21.06409 -47.90029,22.70754 -57.82106,12.80681 -25.19274,-24.77187 18.99978,-100.77098 77.22169,-133.82017 37.99955,-21.48498 37.17783,-28.49967 -2.06433,-21.0641 -38.4004,7.43556 -89.60762,29.74227 -129.27065,56.15756 -35.11352,23.12844 -48.72201,37.17783 -97.88495,99.12755 -44.19252,55.75674 -129.67149,112.33519 -209.37836,138.34967 -23.12844,7.85644 -30.14311,12.8068 -55.75674,40.06387 -16.11374,17.3363 -29.74227,33.45004 -30.14311,35.93524 -0.82173,2.4852 18.99977,18.15801 43.37081,35.11352 30.96482,21.46493 47.49944,35.51435 55.33584,47.90028 9.4999,16.11374 56.57846,57.82106 60.28623,54.09326 0.82172,-0.82172 -1.64345,-11.56422 -4.95036,-23.52926 -8.67818,-28.0788 -8.67818,-47.49946 0,-50.80637 13.20765,-4.95037 87.96417,-2.06433 148.27043,5.77208 69.38526,9.09905 91.69196,9.92077 106.96394,4.12863 5.7721,-2.06431 11.14334,-2.46515 12.38593,-0.82171 3.30693,5.79213 -14.0494,47.49945 -30.56398,73.09303 -20.64322,31.38572 -59.4645,70.62787 -85.49901,85.89985 -30.96484,17.75717 -72.27132,28.92055 -110.27088,29.32139 -55.75674,0.42087 -75.99911,-16.11374 -83.01381,-66.90006 -1.64343,-11.56422 -4.12863,-20.64324 -6.19295,-19.42066 -7.01469,4.54952 -18.57891,86.32072 -16.93546,123.07767 0.82172,28.92055 40.46471,54.11331 96.64233,61.12798 18.5789,2.06433 42.54909,5.77209 53.27154,7.43557 11.14334,2.06432 19.82149,2.06432 19.82149,0.42089 0,-1.66348 -6.61385,-8.2573 -14.87113,-14.45026 -8.25728,-6.19295 -13.20765,-12.8068 -11.14332,-14.87113 1.64343,-1.64345 30.56398,-9.07901 64.01402,-16.11374 72.6922,-14.87113 93.33541,-21.46493 156.52771,-49.14289 66.07835,-29.32139 118.52817,-42.12819 170.97798,-42.12819 25.61363,0 49.14289,2.4852 61.94971,6.19295 11.5642,3.70776 25.61362,6.5938 32.20743,6.5938 21.06409,0 10.72865,-55.07552 -14.94564,-90.10453 -25.67429,-35.029 -16.78667,-91.68851 -7.95262,-113.56091 z M 529.72877,417.41952 c -13.20765,13.62854 -14.04942,16.11374 -8.25728,19.8215 6.19295,3.70778 6.19295,4.95037 0,14.45026 -14.87115,22.30671 -58.64278,37.1578 -91.69198,30.98487 l -14.87114,-2.88604 9.079,-16.11374 c 12.38594,-21.88582 35.11353,-36.75696 75.57824,-50.38548 45.01426,-14.87113 48.32117,-14.45026 30.16316,4.12863 z"
   id="path3"
   style="fill:#ffdbd1;fill-opacity:1;stroke-width:0.200419" />&#10;</svg>
